<svg width="90" height="90" viewBox="0 0 90 90" fill="none" xmlns="http://www.w3.org/2000/svg">
<circle cx="45" cy="45" r="45" fill="#F4F5F4"/>
<path d="M60 61.875V58.125C60 56.1359 59.2098 54.2282 57.8033 52.8217C56.3968 51.4152 54.4891 50.625 52.5 50.625H37.5C35.5109 50.625 33.6032 51.4152 32.1967 52.8217C30.7902 54.2282 30 56.1359 30 58.125V61.875" stroke="#C3CBCD" stroke-width="1.5" stroke-linecap="round" stroke-linejoin="round"/>
<path d="M45 43.125C49.1421 43.125 52.5 39.7671 52.5 35.625C52.5 31.4829 49.1421 28.125 45 28.125C40.8579 28.125 37.5 31.4829 37.5 35.625C37.5 39.7671 40.8579 43.125 45 43.125Z" stroke="#C3CBCD" stroke-width="1.5" stroke-linecap="round" stroke-linejoin="round"/>
</svg>
